<?xml version="1.0" encoding="UTF-8"?>
<svg width="60px" height="63px" viewBox="0 0 60 63" version="1.1" xmlns="http://www.w3.org/2000/svg" xmlns:xlink="http://www.w3.org/1999/xlink">
    <!-- Generator: Sketch 55.2 (78181) - https://sketchapp.com -->
    <title>011-burger-1</title>
    <desc>Created with Sketch.</desc>
    <defs>
        <polygon id="path-1" points="0 0 59.9052509 0 59.9052509 62.4390244 0 62.4390244"></polygon>
    </defs>
    <g id="Symbols" stroke="none" stroke-width="1" fill="none" fill-rule="evenodd">
        <g id="011-burger-1">
            <path d="M54.0515854,48.9 L5.85365854,48.9 C4.73939024,48.9 3.83621951,47.9968293 3.83621951,46.8826829 L3.83621951,44.7856098 C3.83621951,43.6713415 4.73939024,42.7681707 5.85365854,42.7681707 L54.0515854,42.7681707 C55.1657317,42.7681707 56.0695122,43.6713415 56.0695122,44.7856098 L56.0695122,46.8826829 C56.0695122,47.9968293 55.1657317,48.9 54.0515854,48.9 Z" id="Fill-1" fill="#FFA8B0"></path>
            <path d="M56.069878,44.785122 L56.069878,46.8821951 C56.069878,47.9968293 55.1657317,48.8996341 54.0520732,48.8996341 L5.85317073,48.8996341 C4.74182927,48.8996341 3.83902439,47.5209756 3.8352439,46.4086585 L51.6997561,46.4086585 C52.8129268,46.4086585 53.7170732,45.5058537 53.7170732,44.3907317 L53.7170732,42.7676829 L54.0520732,42.7676829 C55.1657317,42.7676829 56.069878,43.6718293 56.069878,44.785122 Z" id="Fill-2" fill="#FF7C88"></path>
            <path d="M54.0515854,28.7971951 L5.85365854,28.7971951 C4.73939024,28.7971951 3.83621951,27.8935366 3.83621951,26.7797561 L3.83621951,24.6823171 C3.83621951,23.5680488 4.73939024,22.664878 5.85365854,22.664878 L54.0515854,22.664878 C55.1657317,22.664878 56.0695122,23.5680488 56.0695122,24.6823171 L56.0695122,26.7797561 C56.0695122,27.8935366 55.1657317,28.7971951 54.0515854,28.7971951 Z" id="Fill-3" fill="#FFA8B0"></path>
            <path d="M56.069878,24.6823171 L56.069878,26.7787805 C56.069878,27.8935366 55.1657317,28.7967073 54.0520732,28.7967073 L5.85317073,28.7967073 C4.73939024,28.7967073 3.8352439,27.8935366 3.8352439,26.7787805 L3.8352439,26.6034146 L51.4629268,26.6034146 C52.5781707,26.6034146 53.4808537,25.7007317 53.4808537,24.5859756 L53.4808537,22.6643902 L54.0520732,22.6643902 C55.1657317,22.6643902 56.069878,23.5685366 56.069878,24.6823171 Z" id="Fill-4" fill="#FF7C88"></path>
            <g id="Group-8" transform="translate(0.853659, 0.853659)">
                <path d="M53.71,41.8882927 L4.48792683,41.8882927 C3.65658537,41.8882927 2.98256098,41.2142683 2.98256098,40.382561 L2.98256098,35.4210976 C2.98256098,34.5893902 3.65658537,33.9152439 4.48792683,33.9152439 L53.71,33.9152439 C54.5417073,33.9152439 55.2158537,34.589878 55.2158537,35.4210976 L55.2158537,40.382561 C55.2158537,41.2142683 54.5412195,41.8882927 53.71,41.8882927 Z" id="Fill-5" fill="#945B44"></path>
                <path d="M57.1421951,14.9609756 C54.5317073,8.71146341 49.0076829,5.01 43.547561,2.82060976 C34.3778049,-0.856097561 23.82,-0.856097561 14.6503659,2.82060976 C9.19012195,5.01 3.66609756,8.71146341 1.05560976,14.9609756 C0.371097561,16.5991463 0.0581707317,18.3426829 0.059992028,20.0914634 C0.0609756098,21.1256098 1.01085366,21.9602439 2.16987805,21.9602439 L56.0280488,21.9602439 C57.1870732,21.9602439 58.1369512,21.1256098 58.1378139,20.0914634 C58.1397561,18.3426829 57.8268293,16.5991463 57.1421951,14.9609756 Z" id="Fill-7" fill="#FFCCAF"></path>
            </g>
            <path d="M58.9914685,20.945122 C58.990122,21.9797561 58.0412195,22.8143902 56.8812195,22.8143902 L3.02402439,22.8143902 C1.86402439,22.8143902 0.915121951,21.9797561 0.913658537,20.945122 C0.913658537,20.6335366 0.923658537,20.322561 0.943170732,20.0119512 L52.3847561,20.0119512 C53.5432927,20.0119512 54.4936585,19.1773171 54.495,18.1430488 C54.4959756,16.394878 54.1840244,14.6513415 53.4993902,13.012561 C51.6668293,8.62756098 46.9979268,5.49634146 43.3256098,3.26414634 C43.6862195,3.39463415 44.0443902,3.53231707 44.4012195,3.6747561 C49.8623171,5.86414634 55.384878,9.56463415 57.9958537,15.8146341 C58.6809756,17.4532927 58.9929268,19.1968293 58.9914685,20.945122 Z" id="Fill-9" fill="#FFB083"></path>
            <path d="M50.4335366,61.5253659 L9.47073171,61.5253659 C4.9295122,61.5253659 1.24756098,57.8434146 1.24756098,53.3017073 L1.24756098,51.5943902 C1.24756098,50.1067073 2.45378049,48.9004878 3.94097561,48.9004878 L55.9631707,48.9004878 C57.4509756,48.9004878 58.6570732,50.1067073 58.6570732,51.5943902 L58.6570732,53.3017073 C58.6570732,57.8434146 54.9752439,61.5253659 50.4335366,61.5253659 Z" id="Fill-10" fill="#FFCCAF"></path>
            <path d="M58.657561,51.594878 L58.657561,53.3017073 C58.657561,57.8439024 54.9757317,61.524878 50.4335366,61.524878 L9.4702439,61.524878 C6.56963415,61.524878 4.01817073,60.022439 2.55621951,57.752439 C3.83426829,58.5713415 5.35487805,59.0463415 6.985,59.0463415 L47.9482927,59.0463415 C52.49,59.0463415 56.1723171,55.3658537 56.1723171,50.8236585 L56.1723171,49.1168293 C56.1723171,49.0473171 56.17,48.9776829 56.1637805,48.9096341 C57.5576829,49.0106098 58.657561,50.1743902 58.657561,51.594878 Z" id="Fill-11" fill="#FFB083"></path>
            <path d="M3.14170732,36.7878049 C2.72865854,37.562439 3.11597561,38.5318293 3.95536585,38.7895122 C5.81597561,39.3607317 6.3804878,40.7564634 9.13963415,40.7564634 C12.6076829,40.7564634 12.6076829,38.549878 16.0760976,38.549878 C19.5446341,38.549878 19.5446341,40.7564634 23.0135366,40.7564634 C26.4819512,40.7564634 26.4819512,38.549878 29.9509756,38.549878 C33.419878,38.549878 33.419878,40.7564634 36.8882927,40.7564634 C40.3573171,40.7564634 40.3573171,38.549878 43.8257317,38.549878 C47.295122,38.549878 47.295122,40.7564634 50.7646341,40.7564634 C53.5237805,40.7564634 54.0881707,39.3607317 55.949878,38.7895122 C56.7892683,38.5318293 57.1765854,37.5629268 56.7630488,36.7878049 L55.6864634,34.7689024 L4.21878049,34.7689024 L3.14170732,36.7878049 Z" id="Fill-12" fill="#AEFFAD"></path>
            <g id="Group-16">
                <mask id="mask-2" fill="white">
                    <use xlink:href="#path-1"></use>
                </mask>
                <g id="Clip-14"></g>
                <path d="M55.4645122,28.8247561 L4.52414634,28.8247561 C2.93207317,28.8247561 1.56158537,30.0485366 1.48670732,31.6391463 C1.40670732,33.337439 2.76012195,34.7393902 4.44073171,34.7393902 L9.68463415,34.7393902 C10.2329268,34.7393902 10.677439,35.1839024 10.677439,35.7321951 L10.677439,37.1956098 C10.677439,38.8286585 11.9326829,40.2343902 13.5642683,40.3110976 C15.3058537,40.3930488 16.7440244,39.004878 16.7440244,37.2808537 L16.7440244,35.7321951 C16.7440244,35.1839024 17.1884146,34.7393902 17.7367073,34.7393902 L20.6430488,34.7393902 C21.1914634,34.7393902 21.6358537,35.1839024 21.6358537,35.7321951 L21.6358537,43.3893902 C21.6358537,45.0642683 22.9940244,46.422439 24.6689024,46.422439 C26.3442683,46.422439 27.702439,45.0642683 27.702439,43.3893902 L27.702439,35.7321951 C27.702439,35.1839024 28.1469512,34.7393902 28.6952439,34.7393902 L55.3806098,34.7393902 C56.9731707,34.7393902 58.3436585,33.5156098 58.4184146,31.925 C58.4985366,30.2271951 57.145122,28.8247561 55.4645122,28.8247561 Z" id="Fill-13" fill="#FFF2B2" mask="url(#mask-2)"></path>
                <path d="M56.7306098,48.0697561 C56.8921951,47.7067073 56.9831707,47.305122 56.9831707,46.8826829 L56.9831707,44.7856098 C56.9831707,44.0734146 56.7278049,43.4208537 56.3042683,42.912561 C56.7235366,42.4770732 56.9831707,41.8869512 56.9831707,41.2362195 L56.9831707,39.2530488 C57.2790244,39.0139024 57.5167073,38.7042683 57.6667073,38.3412195 C57.9330488,37.6962195 57.8973171,36.9731707 57.5695122,36.3581707 L57.0112195,35.3115854 C58.327439,34.7308537 59.2607317,33.467561 59.3312195,31.9684146 C59.3817073,30.8984146 59.0034146,29.8832927 58.2654878,29.1106098 C57.814878,28.6380488 57.2680488,28.2959756 56.6668293,28.1007317 C56.8682927,27.7034146 56.9826829,27.2546341 56.9826829,26.7792683 L56.9826829,24.6823171 C56.9826829,24.3482927 56.9259756,24.0271951 56.822561,23.727561 L56.8817073,23.727561 C58.5470732,23.727561 59.9037805,22.48 59.9052509,20.9460976 C59.9070732,19.0053659 59.5484146,17.1603659 58.8390244,15.462561 C56.5139024,9.89609756 51.7707317,5.6445122 44.7413415,2.82634146 C35.3429268,-0.942317073 24.5621951,-0.942317073 15.1639024,2.82634146 C10.6102439,4.65219512 6.97646341,7.11560976 4.36304878,10.1476829 C4.03390244,10.5302439 4.07682927,11.1070732 4.45878049,11.4367073 C4.84134146,11.7658537 5.41829268,11.7230488 5.74792683,11.3409756 C8.16792683,8.53231707 11.564878,6.23804878 15.8441463,4.52268293 C24.8103659,0.927439024 35.0952439,0.927439024 44.0610976,4.52268293 C50.6187805,7.15182927 55.0237805,11.0695122 57.1531707,16.1670732 C57.7681707,17.64 58.0797561,19.2473171 58.0778049,20.9441463 C58.0773171,21.462439 57.5295122,21.9002439 56.8817073,21.9002439 L20.1276829,21.9002439 C20.1271951,21.8997561 20.1262195,21.8992683 20.1257317,21.8987805 C20.1143902,21.8992683 20.1019512,21.8997561 20.0904878,21.9002439 L3.02353659,21.9002439 C2.37560976,21.9002439 1.82780488,21.462439 1.82731707,20.9441463 C1.82597561,19.2473171 2.13695122,17.64 2.75243902,16.1665854 C2.97060976,15.6445122 3.21646341,15.1276829 3.48280488,14.629878 C3.72146341,14.184878 3.55378049,13.6313415 3.10878049,13.3931707 C2.66439024,13.1545122 2.11036585,13.3221951 1.87219512,13.7671951 C1.57780488,14.3159756 1.30670732,14.8865854 1.06609756,15.462561 C0.356829268,17.1603659 -0.00195121951,19.0053659 -7.91590048e-06,20.9456098 C0.00146341463,22.4795122 1.35768293,23.727561 3.02353659,23.727561 L3.08402439,23.727561 C2.9802439,24.0271951 2.92207317,24.3478049 2.92207317,24.6823171 L2.92207317,26.7792683 C2.92207317,27.2608537 3.0397561,27.7158537 3.24695122,28.1169512 C1.74731707,28.6152439 0.651219512,29.9657317 0.57402439,31.5963415 C0.523536585,32.6662195 0.902195122,33.6809756 1.63963415,34.4540244 C2.0002439,34.8318293 2.42231707,35.1262195 2.88439024,35.3291463 L2.33560976,36.3581707 C2.00743902,36.9736585 1.97219512,37.6962195 2.23841463,38.3412195 C2.38853659,38.7042683 2.62621951,39.0139024 2.92207317,39.2530488 L2.92207317,41.2362195 C2.92207317,41.8869512 3.18170732,42.4770732 3.60085366,42.912561 C3.17743902,43.4208537 2.92207317,44.0734146 2.92207317,44.7856098 L2.92207317,46.8826829 C2.92207317,47.305122 3.01304878,47.7067073 3.1745122,48.0697561 C1.55243902,48.4226829 0.333902439,49.8685366 0.333902439,51.5943902 L0.333902439,53.3017073 C0.333902439,58.339878 4.43268293,62.4390244 9.47121951,62.4390244 L50.4340244,62.4390244 C55.4720732,62.4390244 59.5712195,58.339878 59.5712195,53.3017073 L59.5712195,51.5943902 C59.5707317,49.8690244 58.3521951,48.4226829 56.7306098,48.0697561 Z M4.74987805,24.6823171 C4.74987805,24.275 4.97231707,23.9191463 5.30158537,23.727561 L54.6036585,23.727561 C54.9328049,23.9191463 55.1552439,24.275 55.1552439,24.6823171 L55.1552439,26.7792683 C55.1552439,27.3880488 54.6603659,27.8830488 54.0515854,27.8830488 L5.85365854,27.8830488 C5.24487805,27.8830488 4.74987805,27.3880488 4.74987805,26.7792683 L4.74987805,24.6823171 Z M2.96207317,33.1926829 C2.57243902,32.784878 2.37280488,32.2485366 2.3995122,31.682561 C2.45,30.6107317 3.40317073,29.7389024 4.52414634,29.7389024 L55.4645122,29.7389024 C56.0285366,29.7389024 56.5539024,29.9637805 56.9436585,30.3720732 C57.3328049,30.779878 57.532439,31.3162195 57.5057317,31.8826829 C57.4552439,32.9540244 56.5019512,33.8262195 55.3810976,33.8262195 L28.6952439,33.8262195 C27.6439024,33.8262195 26.7887805,34.6813415 26.7887805,35.7321951 L26.7887805,43.3893902 C26.7887805,44.5579268 25.8379268,45.5087805 24.6693902,45.5087805 C23.5003659,45.5087805 22.5495122,44.5579268 22.5495122,43.3893902 L22.5495122,35.7321951 C22.5495122,34.6813415 21.6945122,33.8262195 20.6435366,33.8262195 L17.7367073,33.8262195 C16.6853659,33.8262195 15.8303659,34.6813415 15.8303659,35.7321951 L15.8303659,37.2813415 C15.8303659,37.8663415 15.5969512,38.4113415 15.1734146,38.8152439 C14.7503659,39.2187805 14.1945122,39.425 13.6070732,39.3982927 C12.4957317,39.3459756 11.5910976,38.3579268 11.5910976,37.1956098 L11.5910976,35.7321951 C11.5910976,34.6813415 10.7359756,33.8262195 9.68512195,33.8262195 L4.44073171,33.8262195 C3.87670732,33.8257317 3.35121951,33.6008537 2.96207317,33.1926829 Z M48.0115854,41.1108537 C48.8409756,41.492439 49.7156098,41.670122 50.7646341,41.670122 C52.764878,41.670122 53.8057317,41.0085366 54.7241463,40.4243902 C54.8718293,40.330122 55.0137805,40.2406098 55.1557317,40.1557317 L55.1557317,41.2362195 C55.1557317,41.562439 54.89,41.8278049 54.5636585,41.8278049 L28.6160976,41.8278049 L28.6160976,39.6217073 C28.9881707,39.5226829 29.4187805,39.4640244 29.9509756,39.4640244 C31.4191463,39.4640244 32.1189024,39.9090244 32.9292683,40.4243902 C33.8471951,41.0080488 34.8880488,41.670122 36.8882927,41.670122 C38.8886585,41.670122 39.9295122,41.0080488 40.847439,40.4243902 C41.6578049,39.9090244 42.357561,39.4640244 43.8257317,39.4640244 C44.0268293,39.4640244 44.2210976,39.4726829 44.4030488,39.4892683 C44.9057317,39.535122 45.3506098,39.1658537 45.3968293,38.6632927 C45.4430488,38.1607317 45.0734146,37.7158537 44.5707317,37.6696341 C44.3330488,37.6476829 44.082561,37.6362195 43.8257317,37.6362195 C41.8254878,37.6362195 40.785122,38.2984146 39.8665854,38.882439 C39.0563415,39.397439 38.3569512,39.8428049 36.8882927,39.8428049 C35.4196341,39.8428049 34.7203659,39.397439 33.91,38.882439 C32.9915854,38.2984146 31.9512195,37.6362195 29.9509756,37.6362195 C29.4497561,37.6362195 29.010122,37.6781707 28.6160976,37.750122 L28.6160976,35.7321951 C28.6160976,35.6887805 28.6518293,35.6535366 28.6952439,35.6535366 L33.2721951,35.6535366 C33.2654878,35.6631707 33.2602439,35.6731707 33.2536585,35.6831707 L55.1381707,35.6831707 L55.9565854,37.2180488 C56.0270732,37.35 56.0346341,37.5052439 55.977561,37.6439024 C55.945122,37.7214634 55.8646341,37.860122 55.6817073,37.9158537 C54.8723171,38.1645122 54.272561,38.5456098 53.7428049,38.882439 C52.932561,39.3978049 52.2328049,39.8428049 50.7641463,39.8428049 C49.9780488,39.8428049 49.3645122,39.7218293 48.7752439,39.4507317 C48.3164634,39.2397561 47.7739024,39.4407317 47.5629268,39.8990244 C47.3523171,40.3573171 47.5529268,40.899878 48.0115854,41.1108537 Z M8.90097561,35.6535366 L9.68463415,35.6535366 C9.72804878,35.6535366 9.76365854,35.6887805 9.76365854,35.7321951 L9.76365854,37.1956098 C9.76365854,38.1207317 10.0671951,38.9739024 10.5792683,39.655122 C10.1839024,39.7723171 9.72231707,39.8423171 9.13963415,39.8423171 C7.67097561,39.8423171 6.97121951,39.397439 6.16134146,38.8819512 C5.63219512,38.5456098 5.03243902,38.1640244 4.22353659,37.9158537 C4.04060976,37.8596341 3.95963415,37.7209756 3.92768293,37.6439024 C3.87,37.5052439 3.87768293,37.35 3.94817073,37.2180488 L4.76658537,35.6826829 L8.92097561,35.6826829 C8.91439024,35.6731707 8.90817073,35.6631707 8.90097561,35.6535366 Z M19.0543902,40.4243902 C19.5354878,40.7302439 20.0519512,41.057561 20.7221951,41.2990244 L20.7221951,41.8282927 L5.34158537,41.8282927 C5.0152439,41.8282927 4.74987805,41.562439 4.74987805,41.2362195 L4.74987805,40.1562195 C4.89134146,40.2410976 5.03292683,40.3306098 5.1804878,40.4243902 C6.09853659,41.0085366 7.13939024,41.670122 9.13963415,41.670122 C10.552561,41.670122 11.4853659,41.3395122 12.2356098,40.939878 C12.6352439,41.1032927 13.0673171,41.2028049 13.5208537,41.2237805 C14.6126829,41.2752439 15.6469512,40.8893902 16.434878,40.1376829 C16.6315854,39.95 16.8063415,39.7456098 16.9579268,39.5284146 C17.8630488,39.6684146 18.4260976,40.0247561 19.0543902,40.4243902 Z M17.6243902,37.7929268 C17.6457317,37.6247561 17.6576829,37.4542683 17.6576829,37.2813415 L17.6576829,35.7321951 C17.6576829,35.6887805 17.6929268,35.6535366 17.7367073,35.6535366 L20.6430488,35.6535366 C20.6869512,35.6535366 20.7221951,35.6887805 20.7221951,35.7321951 L20.7221951,39.2968293 C20.4887805,39.170122 20.2658537,39.0291463 20.0347561,38.882439 C19.3892683,38.4713415 18.6818293,38.0235366 17.6243902,37.7929268 Z M4.74987805,44.7856098 C4.74987805,44.1768293 5.24487805,43.6818293 5.85365854,43.6818293 L20.7345122,43.6818293 C20.8846341,45.7217073 22.5914634,47.3360976 24.6689024,47.3360976 C26.7468293,47.3360976 28.4536585,45.7217073 28.6037805,43.6818293 L54.0515854,43.6818293 C54.6603659,43.6818293 55.1552439,44.1768293 55.1552439,44.7856098 L55.1552439,46.8826829 C55.1552439,47.4914634 54.6603659,47.9863415 54.0515854,47.9863415 L5.85365854,47.9863415 C5.24487805,47.9863415 4.74987805,47.4914634 4.74987805,46.8826829 L4.74987805,44.7856098 Z M57.7434146,53.3017073 C57.7434146,57.3323171 54.4640244,60.6117073 50.4335366,60.6117073 L9.47073171,60.6117073 C5.44060976,60.6117073 2.16134146,57.3323171 2.16134146,53.3017073 L2.16134146,51.5943902 C2.16134146,50.6130488 2.9597561,49.8146341 3.94097561,49.8146341 L55.9631707,49.8146341 C56.945,49.8146341 57.7434146,50.6130488 57.7434146,51.5943902 L57.7434146,53.3017073 Z" id="Fill-15" fill="#000000" mask="url(#mask-2)"></path>
            </g>
            <path d="M25.192439,6.4052439 C25.192439,7.03512195 24.6818293,7.54573171 24.0520732,7.54573171 C23.4221951,7.54573171 22.9115854,7.03512195 22.9115854,6.4052439 C22.9115854,5.7754878 23.4221951,5.26487805 24.0520732,5.26487805 C24.6818293,5.26487805 25.192439,5.7754878 25.192439,6.4052439 Z" id="Fill-17" fill="#000000"></path>
            <path d="M36.9941463,6.4052439 C36.9941463,7.03512195 36.4834146,7.54573171 35.8531707,7.54573171 C35.2234146,7.54573171 34.7128049,7.03512195 34.7128049,6.4052439 C34.7128049,5.7754878 35.2234146,5.26487805 35.8531707,5.26487805 C36.4834146,5.26487805 36.9941463,5.7754878 36.9941463,6.4052439 Z" id="Fill-18" fill="#000000"></path>
            <path d="M16.5586585,11.2757317 C16.5586585,11.9059756 16.0480488,12.4160976 15.4182927,12.4160976 C14.7885366,12.4160976 14.2778049,11.9059756 14.2778049,11.2757317 C14.2778049,10.6459756 14.7885366,10.1352439 15.4182927,10.1352439 C16.0480488,10.1352439 16.5586585,10.6459756 16.5586585,11.2757317 Z" id="Fill-19" fill="#000000"></path>
            <path d="M31.0932927,11.2757317 C31.0932927,11.9059756 30.582561,12.4160976 29.9528049,12.4160976 C29.322561,12.4160976 28.8119512,11.9059756 28.8119512,11.2757317 C28.8119512,10.6459756 29.322561,10.1352439 29.9528049,10.1352439 C30.582561,10.1352439 31.0932927,10.6459756 31.0932927,11.2757317 Z" id="Fill-20" fill="#000000"></path>
            <path d="M45.627439,11.2757317 C45.627439,11.9059756 45.1171951,12.4160976 44.4869512,12.4160976 C43.8571951,12.4160976 43.3464634,11.9059756 43.3464634,11.2757317 C43.3464634,10.6459756 43.8571951,10.1352439 44.4869512,10.1352439 C45.1171951,10.1352439 45.627439,10.6459756 45.627439,11.2757317 Z" id="Fill-21" fill="#000000"></path>
        </g>
    </g>
</svg>