<?xml version="1.0" encoding="UTF-8"?>
<svg width="175px" height="150px" viewBox="0 0 175 150" version="1.1" xmlns="http://www.w3.org/2000/svg" xmlns:xlink="http://www.w3.org/1999/xlink">
    <!-- Generator: Sketch 55.2 (78181) - https://sketchapp.com -->
    <title>Horizontal Scrolling - About</title>
    <desc>Created with Sketch.</desc>
    <defs>
        <linearGradient x1="31.1892583%" y1="23.7500847%" x2="102.596721%" y2="62.048742%" id="linearGradient-1">
            <stop stop-color="#B2C9FF" offset="0%"></stop>
            <stop stop-color="#E8EEFD" offset="100%"></stop>
        </linearGradient>
        <linearGradient x1="31.0551266%" y1="23.7500847%" x2="102.971766%" y2="62.048742%" id="linearGradient-2">
            <stop stop-color="#B2C9FF" offset="0%"></stop>
            <stop stop-color="#E8EEFD" offset="100%"></stop>
        </linearGradient>
        <polygon id="path-3" points="0.00703125 0 60 0 60 59.3660156 0.00703125 59.3660156"></polygon>
    </defs>
    <g id="Web" stroke="none" stroke-width="1" fill="none" fill-rule="evenodd">
        <g id="Horizontal-Scrolling---showcase-Copy">
            <path d="M-12.0333042,968.868314 C133.622363,1032.86633 572,702.50034 572,559.27297 C572,416.045601 82.1925788,152.29764 -12.0333042,253.604804 C-106.259187,354.911968 -157.688972,904.870295 -12.0333042,968.868314 Z" id="pink-copy-2" fill="url(#linearGradient-1)" transform="translate(234.500000, 604.000000) scale(1, -1) rotate(-117.000000) translate(-234.500000, -604.000000) "></path>
            <path d="M59.6464725,122.051667 C76.6935803,129.515243 128,90.9873051 128,74.2838451 C128,57.5803851 70.6743907,26.8215746 59.6464725,38.6362171 C48.6185544,50.4508595 42.5993648,114.588091 59.6464725,122.051667 Z" id="pink-copy-3" fill="url(#linearGradient-2)" transform="translate(88.500000, 79.500000) scale(1, -1) rotate(-117.000000) translate(-88.500000, -79.500000) "></path>
            <g id="navbar--web" transform="translate(0.067227, 0.000000)">
                <g id="logo" transform="translate(50.000000, 50.000000)" stroke="#000000">
                    <polyline id="Path" stroke-width="2" points="34 9 34 50 52 49.9523884"></polyline>
                    <polyline id="Path-2" stroke-width="2" points="43 4.07137594 57.2144227 45 67 4"></polyline>
                    <polyline id="Path-3" stroke-width="2" points="26 66 26 0 16.7930252 18.070599 10.37399 0 0 40.8080009"></polyline>
                </g>
                <g id="navbar--homepage">
                    <g id="navbar">
                        <rect id="navbar--wrapper" x="0" y="0" width="1440" height="140"></rect>
                        <g id="010-burger" transform="translate(1330.000000, 40.000000)">
                            <path d="M34.531875,7.49496094 C38.3803125,8.09097656 41.9499609,9.44507813 44.8549219,11.4101953 C47.6641406,13.3108594 49.7295703,15.6921094 50.8282031,18.2973047 C51.016875,18.7454297 51.4512891,19.0146094 51.9085547,19.0146094 C52.0605469,19.0146094 52.2147656,18.9848438 52.3635938,18.9221484 C52.9600781,18.6703125 53.2393359,17.9832422 52.9879688,17.3867578 C51.7126172,14.3623828 49.3542188,11.6244141 46.1682422,9.46886719 C42.9785156,7.31097656 39.0788672,5.82738281 34.8902344,5.17863281 C34.2516797,5.07984375 33.6520313,5.51789063 33.553125,6.15785156 C33.4538672,6.796875 33.8919141,7.39558594 34.531875,7.49496094 Z" id="Fill-1" fill="#000000"></path>
                            <path d="M11.76,16.2858984 C11.9453906,16.7308594 12.4173047,17.030625 12.8988281,17.0077734 C13.3744922,16.9849219 13.8111328,16.6483594 13.9558594,16.1947266 C14.1023438,15.7355859 13.9383984,15.1995703 13.5539063,14.9070703 C13.1561719,14.6049609 12.5715234,14.5939453 12.1632422,14.8823437 C11.7288281,15.1890234 11.5590234,15.7955859 11.76,16.2858984 Z" id="Fill-2" fill="#000000"></path>
                            <path d="M17.4059766,11.9219531 C17.5932422,12.3719531 18.0734766,12.675 18.5609766,12.6439453 C19.0310156,12.6132422 19.4586328,12.2780859 19.6027734,11.8299609 C19.7497266,11.3741016 19.5849609,10.8430078 19.2067969,10.5492187 C18.8071875,10.2392578 18.2125781,10.2264844 17.8024219,10.5235547 C17.3757422,10.8325781 17.2027734,11.4344531 17.4059766,11.9219531 Z" id="Fill-3" fill="#000000"></path>
                            <g id="Group-7">
                                <mask id="mask-4" fill="white">
                                    <use xlink:href="#path-3"></use>
                                </mask>
                                <g id="Clip-5"></g>
                                <path d="M23.4713672,16.2858984 C23.6567578,16.7308594 24.1291406,17.030625 24.6107813,17.0077734 C25.0863281,16.9849219 25.5240234,16.6483594 25.6686328,16.1947266 C25.8151172,15.7351172 25.6503516,15.1991016 25.2653906,14.9070703 C24.8675391,14.6049609 24.2834766,14.5939453 23.8746094,14.8823437 C23.4406641,15.1890234 23.2703906,15.7955859 23.4713672,16.2858984 Z" id="Fill-4" fill="#000000" mask="url(#mask-4)"></path>
                                <path d="M60,37.1411719 C60,34.5607031 58.3420313,32.3615625 56.03625,31.5491016 L56.03625,28.6166016 C56.4070313,28.4797266 56.7641016,28.299375 57.0996094,28.0741406 C58.4340234,27.1774219 59.199375,25.7620313 59.199375,24.1896094 C59.199375,23.2062891 58.8953906,22.2757031 58.3305469,21.4928906 C58.6161328,20.8158984 58.7022656,20.0642578 58.5635156,19.3236328 C57.5601562,13.9567969 54.1140234,9.0440625 48.8602734,5.48953125 C43.6276172,1.94964844 36.9296484,0 30,0 C23.0703516,0 16.3723828,1.94964844 11.1397266,5.48953125 C5.88597656,9.04359375 2.43984375,13.9567969 1.43648438,19.3236328 C1.26246094,20.2523438 1.44152344,21.1981641 1.92585938,21.9923438 C1.5609375,22.6616016 1.37097656,23.4067969 1.37097656,24.1896094 C1.37097656,25.7620313 2.13632812,27.1783594 3.47121094,28.0746094 C3.63046875,28.1817187 3.79582031,28.2774609 3.96375,28.3648828 L3.96375,31.5491016 C1.65796875,32.3615625 0,34.5607031 0,37.1411719 L0,37.3791797 C0,39.0884766 0.728320312,40.6301953 1.88964844,41.7132422 C1.55085937,42.3651562 1.37097656,43.0901953 1.37097656,43.8367969 C1.37097656,45.0100781 1.79765625,46.0954688 2.56804688,46.9436719 L2.56804688,51.1725 C2.56804688,55.6901953 6.24339844,59.3660156 10.7615625,59.3660156 L49.2384375,59.3660156 C53.7566016,59.3660156 57.4319531,55.6901953 57.4319531,51.1725 L57.4319531,47.4751172 C58.5594141,46.5765234 59.199375,45.2723438 59.199375,43.8363281 C59.199375,42.9359766 58.9457813,42.0835547 58.4719922,41.3465625 C59.4209766,40.2955078 60,38.9039063 60,37.3791797 L60,37.1411719 Z M57.65625,37.1411719 L57.65625,37.3791797 C57.65625,38.5890234 57.0529688,39.6602344 56.131875,40.3098047 C55.5317578,40.7327344 54.80625,40.9634766 54.0719531,40.9634766 L35.9001563,40.9634766 L43.3730859,33.556875 L54.0714844,33.556875 C56.0480859,33.556875 57.65625,35.1649219 57.65625,37.1411719 Z M17.7616406,33.556875 L17.9475,33.7430859 L19.1496094,34.9447266 L16.6333594,37.4615625 L12.7285547,33.556875 L17.7616406,33.556875 Z M28.82625,41.3067188 L21.6366797,34.1176172 C21.6366797,34.1171484 21.6362109,34.1166797 21.6357422,34.1162109 L21.0764062,33.556875 L40.03875,33.556875 L32.206875,41.3021484 C32.2064063,41.3026172 32.2059375,41.3030859 32.2054687,41.3040234 C32.2045313,41.3049609 32.2032422,41.3058984 32.2023047,41.3067188 L30.5141016,42.9950391 L28.82625,41.3067188 Z M3.73992188,19.7538281 C4.6275,15.0077344 7.72207031,10.6311328 12.4530469,7.43039063 C17.3021484,4.15007812 23.5335937,2.34375 30,2.34375 C36.4664062,2.34375 42.6978516,4.15007812 47.5469531,7.43039063 C52.2779297,10.6311328 55.3720312,15.0077344 56.2600781,19.7538281 C56.424375,20.6341406 55.72125,21.4750781 54.8276953,21.4750781 L5.17230469,21.4750781 C4.27734375,21.4750781 3.575625,20.6341406 3.73992188,19.7538281 Z M3.80132813,23.5638281 C4.2365625,23.7323438 4.70578125,23.8188281 5.17230469,23.8188281 L54.8276953,23.8188281 C55.4745703,23.8188281 56.1250781,23.65125 56.6889844,23.3340234 C56.799375,23.6050781 56.855625,23.8966406 56.855625,24.1891406 C56.855625,24.9678516 56.4683203,25.6746094 55.7927344,26.1282422 C55.1019141,26.5924219 54.2220703,26.7036328 53.4319922,26.4536719 C53.0415234,26.3301562 52.6730859,26.1707813 52.2701953,26.0847656 C51.834375,25.9913672 51.3885938,25.9501172 50.9431641,25.9501172 C48.8498438,25.9501172 47.7264844,26.7430078 46.8241406,27.3798047 C46.0323047,27.9391406 45.4069922,28.3809375 44.0574609,28.3809375 C42.7079297,28.3809375 42.0826172,27.9391406 41.2907813,27.3802734 C40.3884375,26.7425391 39.2655469,25.9501172 37.1717578,25.9501172 C35.0784375,25.9501172 33.9555469,26.7430078 33.0533203,27.3802734 C32.2613672,27.9391406 31.6360547,28.3809375 30.2865234,28.3809375 C28.9371094,28.3809375 28.3113281,27.9391406 27.519375,27.3798047 C26.6171484,26.7425391 25.4942578,25.9501172 23.4009375,25.9501172 C21.3075,25.9501172 20.1841406,26.7430078 19.2819141,27.3798047 C18.4899609,27.9391406 17.8641797,28.3809375 16.5152344,28.3809375 C15.1652344,28.3809375 14.5399219,27.9391406 13.7475,27.3798047 C12.8452734,26.7425391 11.7223828,25.9501172 9.62859375,25.9501172 C8.80054688,25.9501172 8.05394531,26.0907422 7.34578125,26.3794922 C6.50941406,26.7210937 5.53066406,26.6344922 4.77808594,26.1287109 C4.1025,25.6750781 3.71518978,24.9682031 3.71518978,24.1896094 C3.71518978,23.9739844 3.74402344,23.7643359 3.80132813,23.5638281 Z M6.54046875,28.92375 C7.15535156,28.8939844 7.73203125,28.7388281 8.30425781,28.5209766 C8.87507813,28.303125 9.49769531,28.26 10.1023828,28.3140234 C11.1369141,28.4060156 11.7026953,28.8057422 12.3957422,29.2945313 C13.2980859,29.9317969 14.4209766,30.7246875 16.5147656,30.7246875 C18.6080859,30.7246875 19.7309766,29.9317969 20.6332031,29.2945313 C21.4251563,28.7356641 22.0509375,28.2938672 23.4004688,28.2938672 C24.7498828,28.2938672 25.3751953,28.7356641 26.1671484,29.2945313 C27.069375,29.9317969 28.1927344,30.7246875 30.2860547,30.7246875 C32.3794922,30.7246875 33.5023828,29.9317969 34.4046094,29.2945313 C35.1965625,28.7356641 35.8223438,28.2938672 37.1712891,28.2938672 C38.5208203,28.2938672 39.1466016,28.7356641 39.9385547,29.2945313 C40.8407812,29.9317969 41.9636719,30.7246875 44.0569922,30.7246875 C46.1503125,30.7246875 47.2732031,29.9317969 48.1755469,29.2945313 C48.9678516,28.7356641 49.5931641,28.2938672 50.9426953,28.2938672 C51.4215234,28.2938672 51.8916797,28.3735547 52.3379297,28.5488672 C52.7732812,28.7200781 53.2264453,28.8432422 53.6920312,28.8977344 L53.6920312,31.2134766 L42.8910937,31.2134766 C42.890625,31.2134766 42.890625,31.2134766 42.8901563,31.2134766 L18.2505469,31.2134766 C18.2496094,31.2134766 18.2483203,31.2134766 18.2473828,31.2134766 C18.2459766,31.2134766 18.2446875,31.2134766 18.24375,31.2134766 L6.3075,31.2134766 L6.3075,28.9301953 C6.3853125,28.9297266 6.46265625,28.9275 6.54046875,28.92375 Z M2.34375,37.1411719 C2.34375,35.1649219 3.95191406,33.556875 5.92804687,33.556875 L9.414375,33.556875 L15.8047266,39.9476953 C16.0244531,40.1674219 16.3224609,40.2904688 16.6333594,40.2904688 C16.9441406,40.2904688 17.2421484,40.1674219 17.461875,39.9476953 L20.8072266,36.6023438 L25.1683594,40.9634766 L5.92804687,40.9634766 C5.30871094,40.9634766 4.69300781,40.7995313 4.15558594,40.4923828 C3.07429688,39.8749219 2.34375,38.71125 2.34375,37.3791797 L2.34375,37.1411719 Z M3.9084375,42.9523828 C4.55332031,43.1862891 5.24179688,43.3072266 5.92804687,43.3072266 L27.5121094,43.3072266 L29.6854687,45.4807031 C30.135,45.9305859 30.8880469,45.9315234 31.3389844,45.4843359 L33.5357812,43.3072266 L54.0714844,43.3072266 C54.7325391,43.3072266 55.3926563,43.1950781 56.0170312,42.9789844 C56.1479297,42.9336328 56.2816406,42.8879297 56.4046875,42.8247656 C56.4445312,42.8041406 56.5021875,42.7583203 56.5494141,42.7614844 C56.6143359,42.7661719 56.6313281,42.8490234 56.6546484,42.9011719 C56.7814453,43.1808984 56.8491797,43.4871094 56.8550449,43.7942578 C56.874375,44.8998047 56.0783203,45.8248828 55.03875,46.1260547 C54.4432031,46.2991406 53.7982031,46.2607031 53.2242187,46.0263281 C52.5173438,45.7374609 51.7707422,45.5969531 50.9426953,45.5969531 C48.849375,45.5969531 47.7264844,46.3897266 46.8241406,47.0269922 C46.0318359,47.5863281 45.4065234,48.028125 44.0569922,48.028125 C42.7079297,48.028125 42.0822656,47.5863281 41.2903125,47.0269922 C40.3880859,46.3897266 39.2650781,45.5969531 37.1717578,45.5969531 C35.0784375,45.5969531 33.9555469,46.3897266 33.0528516,47.0269922 C32.2608984,47.5863281 31.6355859,48.028125 30.2860547,48.028125 C28.9366406,48.028125 28.3113281,47.5863281 27.5189063,47.0269922 C26.6166797,46.3897266 25.4937891,45.5969531 23.4004687,45.5969531 C21.3070312,45.5969531 20.1841406,46.3897266 19.2814453,47.0269922 C18.4894922,47.5863281 17.8641797,48.028125 16.5147656,48.028125 C15.1647656,48.028125 14.5394531,47.5858594 13.7475,47.0269922 C12.8448047,46.3897266 11.7219141,45.5969531 9.628125,45.5969531 C8.80007813,45.5969531 8.05347656,45.7374609 7.34578125,46.0267969 C6.58078125,46.3389844 5.68910156,46.2977344 4.96722656,45.8912109 C4.32867188,45.5319141 3.85300781,44.9157422 3.74132813,44.1837891 C3.70792969,43.9673437 3.70605469,43.7457422 3.73488281,43.5282422 C3.74308594,43.4650781 3.85066406,42.9314062 3.9084375,42.9523828 Z M55.0882031,51.1725 C55.0882031,54.3978516 52.4637891,57.0222656 49.2384375,57.0222656 L10.7615625,57.0222656 C7.53621094,57.0222656 4.91179688,54.3978516 4.91179688,51.1725 L4.91179688,48.3929297 C5.87402344,48.6657422 6.91265625,48.6465234 7.90242187,48.3174609 C7.92246094,48.3105469 7.94261719,48.3036328 7.96230469,48.2973047 C8.05253906,48.2656641 8.14265625,48.2332031 8.23148438,48.1965234 C8.65265625,48.0244922 9.10945312,47.9411719 9.628125,47.9411719 C10.978125,47.9411719 11.6034375,48.3823828 12.3952734,48.9418359 C13.2980859,49.5789844 14.4209766,50.371875 16.5147656,50.371875 C18.6080859,50.371875 19.7309766,49.5789844 20.6332031,48.9418359 C21.4251562,48.3823828 22.0509375,47.9411719 23.4,47.9411719 C24.7494141,47.9411719 25.3751953,48.3823828 26.1671484,48.9418359 C27.069375,49.5789844 28.1922656,50.371875 30.2860547,50.371875 C32.3794922,50.371875 33.5023828,49.5789844 34.4046094,48.9418359 C35.1965625,48.3823828 35.8223438,47.9411719 37.1712891,47.9411719 C38.5208203,47.9411719 39.1466016,48.3823828 39.9380859,48.9418359 C40.8403125,49.5789844 41.9636719,50.371875 44.0569922,50.371875 C46.1503125,50.371875 47.2732031,49.5789844 48.1755469,48.9418359 C48.9673828,48.3823828 49.5931641,47.9411719 50.9426953,47.9411719 C51.2919141,47.9411719 51.6421875,47.9800781 51.9795703,48.0738281 C52.3004297,48.163125 52.6034766,48.3041016 52.9243359,48.3948047 C53.6210156,48.5912109 54.373125,48.6328125 55.0882031,48.5165625 L55.0882031,51.1725 L55.0882031,51.1725 Z" id="Fill-6" fill="#000000" mask="url(#mask-4)"></path>
                            </g>
                            <path d="M26.4738281,11.9219531 C26.6592188,12.3669141 27.1316016,12.6690234 27.6137109,12.6442969 C28.0892578,12.6200391 28.5255469,12.285 28.670625,11.8318359 C28.8180469,11.3722266 28.6528125,10.8371484 28.2687891,10.5437109 C27.871875,10.2401953 27.2864063,10.2287109 26.8784766,10.5185156 C26.4459375,10.8251953 26.2692188,11.4317578 26.4738281,11.9219531 Z" id="Fill-8" fill="#000000"></path>
                            <path d="M31.7601562,17.0873438 C31.9455469,17.5327734 32.4174609,17.8321875 32.8989844,17.8093359 C33.3751172,17.7863672 33.8104687,17.4494531 33.9564844,16.9967578 C34.1042578,16.5376172 33.9385547,16.0011328 33.5540625,15.7086328 C33.1563281,15.4060547 32.5716797,15.3959766 32.1633984,15.6839063 C31.7294531,15.9905859 31.5591797,16.5971484 31.7601562,17.0873438 Z" id="Fill-9" fill="#000000"></path>
                            <path d="M28.768125,6.56519531 C29.1851953,6.84316406 29.7716016,6.815625 30.1592578,6.49792969 C30.5383594,6.18761719 30.6898828,5.63777344 30.5150391,5.17910156 C30.3446484,4.73378906 29.8933594,4.4165625 29.415,4.41877742 C28.9416797,4.42148438 28.4916797,4.73238281 28.3241016,5.17546875 C28.1369531,5.67164062 28.3282031,6.26953125 28.768125,6.56519531 Z" id="Fill-10" fill="#000000"></path>
                        </g>
                    </g>
                </g>
            </g>
        </g>
    </g>
</svg>